<?xml version="1.0" encoding="UTF-8" standalone="no"?>
<!DOCTYPE svg PUBLIC "-//W3C//DTD SVG 1.1//EN" "http://www.w3.org/Graphics/SVG/1.1/DTD/svg11.dtd">
<svg width="100%" height="100%" viewBox="0 0 320 147" version="1.1" xmlns="http://www.w3.org/2000/svg" xmlns:xlink="http://www.w3.org/1999/xlink" xml:space="preserve" xmlns:serif="http://www.serif.com/" style="fill-rule:evenodd;clip-rule:evenodd;stroke-linejoin:round;stroke-miterlimit:2;">
    <g transform="matrix(1,0,0,1,-42.9148,-54.1767)">
        <g id="sm-io-logo" transform="matrix(0.879094,0,0,0.879094,-67.0601,-119.968)">
            <g transform="matrix(0.126567,0,0,0.162185,295.651,192.86)">
                <path d="M60.31,257.95C45.94,244.58 49.72,206.7 28.78,191.54C22.48,184.79 1.64,182.37 0.95,174.3C56.08,161.64 52.26,69.38 61.89,116.51C67.1,144.48 91.29,162.71 116.49,172.89C155.95,186.18 68.93,170.54 60.31,257.95Z" style="fill:rgb(195,190,247);fill-rule:nonzero;"/>
            </g>
            <g transform="matrix(0.126567,0,0,0.162185,355.145,258.305)">
                <path d="M144.99,93.58C139.16,34.36 89.35,56.38 130.26,30.91C145.43,15.66 139.9,-2.71 146.85,2.2C148.49,24.69 168,37.44 186.98,44.94C166.13,50.01 150.81,72.65 144.99,93.58Z" style="fill:rgb(195,190,247);fill-rule:nonzero;"/>
            </g>
            <g transform="matrix(0.0806672,0,0,-0.103368,332.802,277.345)">
                <path d="M215.74,416.64C186.96,388.84 142.22,351.71 90.76,356.92C88.67,347.64 116.75,345.83 122.36,341.48C139.03,335.58 153.55,325.85 168.69,316.97C230.81,268.96 256.28,187.96 260.56,112.37C257.37,46.45 299.3,275.02 376.4,307.91C397.04,321.45 419.56,331.02 441.97,340.26C465.43,346.61 487.98,349.59 446.67,354.33C342.2,381.62 290,477.52 282.02,586.46C273.52,613.74 269.54,519.76 262.96,507.98C252.24,474.01 237.69,441.44 215.74,416.64Z" style="fill:rgb(195,190,247);fill-rule:nonzero;"/>
            </g>
            <g transform="matrix(0.126567,0,0,-0.162185,324.895,330.283)">
                <path d="M60.31,257.95C45.94,244.58 49.72,206.7 28.78,191.54C22.48,184.79 1.64,182.37 0.95,174.3C56.08,161.64 52.26,69.38 61.89,116.51C67.1,144.48 91.29,162.71 116.49,172.89C155.95,186.18 68.93,170.54 60.31,257.95Z" style="fill:rgb(195,190,247);fill-rule:nonzero;"/>
            </g>
            <g transform="matrix(0.126567,0,0,-0.162185,301.349,267.182)">
                <path d="M144.99,93.58C139.16,34.36 89.35,56.38 130.26,30.91C145.43,15.66 139.9,-2.71 146.85,2.2C148.49,24.69 168,37.44 186.98,44.94C166.13,50.01 150.81,72.65 144.99,93.58Z" style="fill:rgb(195,190,247);fill-rule:nonzero;"/>
            </g>
            <g transform="matrix(0.126567,0,0,-0.162185,327.217,313.045)">
                <path d="M441.49,535.52C436.87,515.72 431.55,493.17 409.1,487.49C406.86,486.72 407.36,484.74 409.47,484.08C431.4,481.37 433.7,449.8 443.09,443.25C442.61,468.65 470.82,478.14 483.23,489.1C457.37,489.71 449.09,518.57 441.49,535.52Z" style="fill:rgb(195,190,247);fill-rule:nonzero;"/>
            </g>
            <g transform="matrix(0.297683,0,0,0.297683,370.649,197.806)">
                <path d="M235.68,235.1C234.47,259.29 232,283.96 229.39,307.87C228.99,313.5 224.35,338.59 228.97,333.49C249.82,296.42 271.84,258.01 291.1,221.17C304.26,199.88 312.2,174.56 337.7,164.92C389.54,138.16 375.05,146.11 396.97,193.42C401.01,199.17 391.32,207.79 389.53,213.74C383.64,232.47 374.81,249.54 367.25,267.44C352.1,305.98 330.14,312.19 379.27,298.43C404.73,290.24 395.91,299.89 392.32,318.71C385.11,356.53 357.79,387.07 338.02,419.27C313.92,449.33 356.29,413.61 344.49,451.6C343.56,481.69 318.26,498.57 299.07,518.72C311.69,536.67 306.68,536.75 289.97,545.91C275.42,548.81 260.73,536.67 245.04,543.56C220.03,548.25 194.66,558.97 169.89,559.52C160.26,557.03 151.89,553.38 143.09,549.92C124.74,539.41 103.51,545.05 81.86,542.97C76.66,532.93 64.65,524.81 55.14,516.98C54.74,509.76 46.67,500.17 47.48,490.87C79.83,488.03 54.05,481.32 42.47,465.72C33.08,455.65 21.19,441.01 13.01,433.86C9.82,427.49 -1.43,424.31 0.3,416.2C1.57,407.34 1.8,397.05 3.56,387.09C3.55,378.1 4,372.71 14.35,372.05C20.66,370.93 28.07,368.5 32.19,373.07C44.92,387.91 60.17,399.9 73.36,414.44C84.37,426.56 67.74,389.91 65.75,382.1C59.25,360.73 43.45,345.37 33.68,327.74C24.14,311.57 13.2,293.95 5.93,276.31C6.37,266.04 8.83,254.88 11.31,245.25C12.74,243.48 12.45,231.77 16.48,233.4C27.94,235.33 47.34,256.18 37.63,233.31C32.34,219.98 44.2,207.3 47.04,194.35C57.89,180.99 72.93,188.08 79.04,202.26C82.13,187.36 81.76,173.72 83.22,158.21C85.89,133.28 85.07,105.12 88.77,80.3C104.32,59.56 123.23,41.48 138.18,20.27C144.69,14.99 152.59,-3.27 161.3,1.88C184.6,52.38 217.68,98.95 240.43,148.47C241.48,177.44 235.92,206.72 235.68,235.1ZM89.97,89.85C91.32,133.61 85.03,175.61 83.61,219.11C83.9,241.75 98.97,260.52 107.43,280.86C121.42,311.78 135.89,341.36 149.97,371.54C155.89,387.62 155.24,298.1 157.25,292.68C158.67,239 163.67,178.95 166.24,127.23C165.64,107.72 167.87,112.57 148.45,109.36C130.37,104.87 110.77,102.09 94.66,99.56C74.81,85.09 184.69,119.39 163.64,101.7C151.11,82.69 153.47,76.98 128.92,77.75C118.04,79.07 106.64,74 96.94,76.53C93.33,81.37 89.26,83.26 89.97,89.85ZM235.3,362.91C235.58,377.12 211.99,456.88 229.5,420.69C235.87,409.46 242.14,399.54 255.59,395.81C285.98,348.61 310.88,293.85 336.36,242.36C342.66,229.11 346.79,215.97 355.19,202.77C360.27,196.99 349.5,196.37 345.73,193.12C336.53,187.55 328.89,185.56 319.78,180.87C306.37,204.87 293.33,229.05 280.48,253.34C264.81,282.76 248.04,311.65 231.62,340.63C234.56,350.05 237.93,350.15 235.3,362.91ZM190.89,116.97C185.38,183.98 189.72,253.27 186.57,321.15C187.6,326.22 201.9,312.89 208.12,312.45C215.48,309.65 217.86,322.56 222.58,325.7C223.66,322.42 222.75,316.26 223.81,311.77C229.5,258.18 232.82,203.27 236.95,152.44C237.57,146.19 225.28,143.64 221.4,138.82C211.2,131.41 198.68,126.25 190.89,116.97ZM368.96,346.09C373.38,338.85 357.37,335.9 353.27,331.13C346.05,332.88 339.26,346.51 333.2,352.95C295.14,395.32 264.07,443.12 241.73,494.29C244.68,497.05 245.49,493.92 247.7,491.83C266.77,472.66 290.62,453.29 308.61,436.66C328.94,409.02 349.02,373.88 368.96,346.09ZM164.8,239.39C161.36,278.79 159.71,319.03 158.51,358.76C158.42,361.78 157.97,364.77 157.56,367.77C156.57,375.01 166.06,389.53 165.66,378.26C168.77,361.39 171.47,343.4 175.42,328.77C176.31,326.92 179.38,328.67 181.04,326.92C183.7,326.4 183.13,173.75 186.05,113.68C181.01,114.43 175.63,112.58 170.02,113.25C171.23,130.23 169.72,146.72 169.44,163.55C167.87,188.75 166.62,214.71 164.8,239.39ZM278.2,412.58C305.91,361 329.84,308 352.52,253.81C359.71,237.87 365.68,221.98 373.33,206.4C378.22,200.4 367.88,202.01 364.25,200.23C351.28,208.08 349.82,227.95 336.47,254.34C317.43,296.25 296,337.53 273.46,377.28C266.63,385.92 262.24,393.68 267.79,404.04C272.04,413.66 271.95,429.35 278.2,412.58ZM200.27,354.02C183.03,340.78 189.12,355.51 185.55,369.67C182.54,392.28 178.27,414.03 175.02,436.67C172.14,457.64 161.34,478.17 165.71,499.56C164.13,510.39 174.84,503.79 181.05,502.44C181.16,496.32 183.62,489.86 185.47,483.87C193.72,455.51 200.4,426.51 206.47,398.15C209.58,386.06 211.4,373.66 215.08,361.84C209.59,360.06 204.99,357.27 200.27,354.02ZM45.25,415.91C39.11,406.04 25.64,412.27 16.57,409.83C13.71,409.51 12.03,413.47 9.91,415.25C-2.19,422.45 67.07,478.41 81.95,496.01C82.8,497.02 83.36,498.21 83.98,499.38C86.8,504.71 113.27,474.95 107.35,475.76C86.03,457.8 63.37,432.61 45.25,415.91ZM153.72,453.86C136.59,422.45 118.87,393.35 95.58,366.04C88.3,356.06 89.26,377.77 84.89,383.36C80.43,392.63 86.3,398.95 89.9,407.47C97.18,432.73 112.69,452.16 130.14,471.2C139.73,469.54 160.84,459.05 162,475.45C165.1,466.46 156.42,461.88 153.72,453.86ZM129.57,376.76C103.34,326.4 82.17,273.98 57.99,222.15C54.21,211.97 48.07,223.37 41.83,225.82C37.57,231.41 46.58,241.34 46.03,248.68C49.38,252.03 52.83,253.45 56.76,259.69C69.56,282.84 71.34,311.66 87.23,332.15C119.54,354.2 124.71,380.06 143.03,411.8C148.01,421.75 143.84,410.49 144.75,405.5C140.71,394.78 134.17,387.81 129.57,376.76ZM328.07,465.63C307.25,439.32 322.04,430.27 296.51,454.29C284.67,466.43 271.21,475.98 259.41,487.78C247.16,498.71 248.63,498.81 262.98,503.25C276.81,507.67 281.37,509.73 291.67,498.15C304.33,487.03 314.41,474.7 328.07,465.63ZM58.58,215.8C74.62,234.01 142.92,417.61 148.9,389.29C150.63,383.82 152.17,382.75 148.41,377.9C126.41,335.87 106.87,293.03 87.62,249.64C82.04,239.53 78.39,226.54 72.81,216.25C70.77,210.17 60.61,216.26 58.58,215.8ZM233.33,141.75C210.11,102.63 185.19,61.15 165.67,19.92C166.33,32.59 182.7,85.93 189.56,111.59C203.34,120.55 218.58,132.37 233.33,141.75ZM232.04,355.73C221.57,357.71 219.6,362.56 216.64,374.24C211.6,396.8 208.29,420.57 201.84,440.81C199.36,457.24 191.43,476.8 188.54,493.32C195.16,480.27 202.98,470.43 209.61,456.63C221.24,425.79 224.78,388.15 232.04,355.73ZM149.2,75.31C149.66,64.69 148.45,53.87 148.99,43.7C148.14,32.85 151.79,28.6 139.31,34.31C130.85,35.75 127.64,40.52 120.36,48.43C113.75,55.95 106.33,64.1 100.3,72.26C116.53,73.18 132.95,73.93 149.2,75.31ZM243.45,522.04C236.07,507.13 239.47,505.35 224.63,508.45C210.72,511.52 197.94,514.27 184.45,517.3C181.33,519.33 176.54,517.28 176.22,521.14C177.31,527.14 173.86,540.65 182.89,537.34C184.29,536.83 185.74,536.47 187.2,536.17C206.16,532.24 224.97,526.72 243.45,522.04ZM260.89,520.42C241.52,528.56 218.25,532.39 197.98,538C194.56,538.76 191.1,539.05 187.94,539.75C186.06,540.16 184.15,540.36 182.22,540.39C178.47,540.45 174.55,542.21 175.19,549.09C172.12,558.86 177.43,554.15 182.96,553.7C187.41,552.02 197.18,551.11 201.52,549.41C202.81,548.91 204.15,548.6 205.51,548.39C211.29,547.47 215.9,544.99 221.97,544.39C227.98,543.33 245.05,539.06 255.56,535.46C263.3,530.01 268.3,521.26 275.94,516.01C272.03,514.68 265.75,519.66 260.89,520.42ZM208.94,486.56C210.88,481.34 238.47,429.2 252.13,411.99C239.98,398.92 231.69,430.11 224.72,440.42C223.35,442.44 222.14,444.56 221.04,446.74C213.75,461.18 187,495.46 193.09,499.67C202.75,498.56 204.53,494.39 208.94,486.56ZM73.49,422C66.84,416.29 62.9,409.84 56.67,403.62C51.33,395.63 50.17,406.57 45.94,409.36C69.05,428.44 91.68,462.9 117.11,473.51C126.83,471.79 125.63,472.82 118.9,465.79C104.46,450.79 87.44,437.47 73.49,422ZM163.86,461.71C172.02,434.03 173.55,403.39 179.92,376.13C186.04,349.98 183.02,342.48 178.15,337.31C172.23,367.77 167.64,399.92 162.29,430.16C158.54,440.5 157.04,451.84 163.86,461.71ZM128.71,536.96C141.56,529.24 150.88,516.69 162.47,507.31C161.42,501.62 160.22,494.66 159.93,488.24C160.29,458.95 142.98,496.78 134.97,505.39C128.77,514.26 131.07,526.39 128.71,536.96ZM343.41,303.66C360.51,271.21 375.17,232.08 391.4,201.46C394.86,194.95 385.9,202.25 381.16,202.08C376.22,205.35 375.83,213.73 372.65,218.79C366.99,238.35 308.24,362.43 343.41,303.66ZM26.46,290.48C37.38,315.7 52.71,339.23 64.57,364.18C66.24,359.75 67.4,353 69.29,347.37C58.4,332 50.01,310.23 41.13,295.65C34,281.76 37.74,284.81 26.46,290.48ZM16.09,405.88C27.15,405.15 59.61,410.89 43.98,392.48C36.2,382.98 31.35,373.1 17.83,375.78C14.04,376.9 9.46,377.08 8.12,377.68C11.81,386.87 14.99,395.96 16.09,405.88ZM373.46,303.98C361.81,303.87 360.71,319.29 354.73,327.47C361.53,329.64 371.09,342.79 375.54,334.65C383.69,325.14 390.32,314.62 391.95,301.95C391.94,297.08 378.16,304.46 373.46,303.98ZM261.66,416.55C251.72,408.49 248.94,428.37 244.09,434.21C240.36,439.96 217.1,481.84 209.02,495.36C213.25,494.89 221.16,494.88 223.34,491.73C235.84,468.05 247.61,441.51 261.66,416.55ZM65.93,294.73C52.94,260.53 57.58,257.73 22.19,241.06C29.01,253.35 36.27,265.83 42.83,278C49.64,282.57 73.18,312.43 65.93,294.73ZM37.38,279.09C31.94,266.26 24.24,255 18.56,243.59C13.26,237.77 12.39,267.82 10.35,275.26C20.26,287.44 24.92,290.49 37.38,279.09ZM89.6,505.21C90.31,509.03 81.2,544.93 87.2,537.64C120.21,511.56 146.04,509.21 91.76,505.56C90.91,505.42 90.31,505.32 89.6,505.21ZM60.71,301.07C53.54,295.68 47.63,286.77 40.87,281.89C34.12,284.1 42.08,289.95 47.94,298.6C53.97,310.85 59.64,323.3 66.91,334.85C69.94,340.75 70.79,340.19 72.12,336.8C72.72,335.27 73.44,333.78 74.34,332.4C80.33,323.21 67.46,306.84 60.71,301.07ZM114.77,477.59C133.06,511.76 122.56,513.76 146.01,481.63C167.3,460.21 127.24,478.88 114.77,477.59ZM152.67,32.7C154.35,46.07 150.73,63.78 155.11,75.14C161.58,76.4 168.59,76.76 175.06,78.18C173.85,63.76 164.59,43.99 152.67,32.7ZM328.55,335.34C319.16,353.71 307.05,370.43 296.73,388.67C315.75,368.97 329.1,347.99 347.12,329.29C346.1,295.28 335.26,326.86 328.55,335.34ZM284.24,513.34C291.06,515.41 295.48,518.19 299.61,510.75C307.34,503.41 314.43,495.51 322.87,488.57C343.33,467.59 328.07,467.66 311.94,486.08C303.48,495.56 291.03,503.02 284.24,513.34ZM373.94,153.03C366.34,156.74 319.76,176.49 331.29,175.06C344.31,173.37 364.62,178.94 373.8,172C373.96,167.27 372.8,159.4 373.94,153.03ZM270.32,527.13C249.94,542.42 276.45,540.55 288.59,541.87C289.01,535.1 292.99,527.79 294.18,521.12C278.31,515.11 280.25,518.06 270.32,527.13ZM194.01,511.07C204.14,505.74 240.43,509.23 231.89,495.84C229.04,496.17 226.31,497.24 223.29,497.24C204.75,501.3 186.26,506.35 168.12,509.55C171.17,520.82 185.85,513.01 194.01,511.07ZM171.14,81.76C167.89,83.01 153.23,76.6 155,81.12C165.01,90.85 166.73,111.46 182.54,109.44C188.45,111.1 178.96,96.04 178.56,93.21C177.1,87.78 178.65,83.21 171.14,81.76ZM341.77,396.39C338.73,404.79 314.95,431.6 320.04,433.19C344.7,406.73 359.66,372.83 380.17,344.62C382.77,328.77 346.54,390.11 341.77,396.39ZM92.99,538.66C103.67,538.27 113.74,539.4 124,538.88C128.09,509.56 130.47,511.18 110.26,525.46C109.04,526.32 107.92,527.33 106.84,528.36C102.66,532.33 96,534.21 92.99,538.66ZM81,332.09C85.81,340.51 86.8,351.59 93.57,358.25C100.66,362.2 113.43,383.18 114.27,381.65C110.75,351.57 100.09,351.76 81,332.09ZM117.33,492.08C110.16,472.5 102.3,492.77 94.61,498.02C90.23,503.72 115.12,502.66 121.56,504.34C123.61,501.19 119.05,496.55 117.33,492.08ZM78.42,337.26C82.79,349.23 67.18,387.38 78.28,387.87C81.88,383.12 82.59,374.4 85.06,368.46C85.25,363.48 88.87,359.76 86.81,355.65C81.89,351.7 82.87,341.18 78.42,337.26ZM360.69,191.97C363.15,187.34 377.24,175.6 363.91,179.11C357.12,179.7 349.62,179.94 343.42,179.05C341.96,178.84 340.48,178.81 339,178.95C325.5,180.23 327.66,179.93 341.54,185.72C345.21,186.83 359.04,198.1 360.69,191.97ZM61.03,516.13C73.49,525.84 83.29,540.85 84.12,516.06C85.04,512.41 77.78,510.05 75.86,508.51C71.54,503.88 65.05,511.74 61.03,516.13ZM196.57,333.67C181.15,344.72 205.54,350.4 214.72,357.14C213.34,341.19 214.66,335.21 196.57,333.67ZM316.99,437.43C329.49,458.9 329.14,472.84 339.6,441.19C344.91,432.66 322.37,438.74 316.99,437.43ZM242.4,473.49C250.25,456.55 258.1,438.64 267.58,422.2C266.21,402.16 208.17,538.57 242.4,473.49ZM194.26,323.96C192.47,328.56 204.31,331.23 207.94,331.95C226.57,340.04 217.8,325.13 210.42,316.26C205.76,317.33 200.54,320.62 196.35,322.05C195.42,322.37 194.62,323.04 194.26,323.96ZM148.54,405.45C149.74,417.8 153.5,457.8 157.88,427.56C158.77,415.83 165.61,406 148.54,405.45ZM391.97,193.99C386.59,183.1 383.55,171.62 377.84,160.86C380.82,174.95 369.96,207.18 391.97,193.99ZM144.62,541.89C116.11,536.67 166.07,555.33 170.65,553.61C177.13,534.06 155.03,545.33 144.62,541.89ZM74.25,391.67C74.95,401.37 82.51,413.75 84.96,423.47C86.6,430.78 105.78,445.88 94.37,431.03C90.79,421.22 85.94,411.43 82.79,401.76C80.12,396.98 80.38,392.29 74.25,391.67ZM172.84,535.92C172.47,532.2 172.46,526.74 172.5,522.69C164.65,525.65 157.24,531.18 150.11,533.76C131.01,540 168.63,539.44 172.84,535.92ZM51.92,194.47C54.68,206.94 56.48,217.42 67.83,207.34C65.89,196.81 64.72,188.14 51.92,194.47ZM130.94,400.15C125.89,391.84 121.35,375.92 116.28,371.2C118.64,393.7 134.75,409.02 144.87,428.38C142.05,418.98 135.61,406.73 130.94,400.15ZM230.47,348.37C228.39,343.11 227.06,336.96 221.12,337.37C219.34,338.02 215.75,336.13 216.86,339.66C219.73,344.47 215.6,359.08 223.61,354.35C225.86,352.1 233.05,352.93 230.47,348.37ZM140.57,534.06C150.16,529.83 162.01,523.86 169.61,518.46C160.72,502.95 151.03,528.08 140.57,534.06ZM166.53,44.08C165.08,32.69 159.89,21.77 158.1,10.27C150.81,24.7 156.88,33.09 166.53,44.08ZM149.19,26.99C151.29,22.09 153.18,16.38 154.13,11.73C155.4,11.5 155.06,10.73 154.82,9.96C155.55,8.92 156.15,8.38 155.76,6.88C154.76,7.95 154.49,9.71 152.99,9.47C146.88,17.11 139.58,23.92 134.73,32.65C139.42,32.2 143.93,27.01 149.19,26.99ZM45.02,336.75C41.01,327.03 25.87,293.78 20.33,290.51C0.33,267.14 37.99,327.02 45.02,336.75ZM261.03,397.81C259.79,399.2 243.87,402.9 248.83,404.9C264.61,412.69 268.91,417.61 261.03,397.81ZM266.25,508.45C259.79,505.28 256.22,514.16 252.81,519.61C258.62,516.81 279.72,511.41 270.5,509.89C269.02,509.65 267.6,509.12 266.25,508.45ZM247.74,519.38C249.85,514.09 253.8,511.8 256.3,506.66C241.94,505.57 237.54,506.73 247.74,519.38ZM6.88,386.89C7.41,396.32 5.07,405 4.93,414.36C15.46,408.09 11.69,395.9 6.88,386.89ZM69.9,379.39C72.79,372.98 76.93,329.79 72.5,351.53C70.59,361.28 64.48,370.99 69.9,379.39ZM353.57,320.65C361.38,304.33 364.88,308.07 346.79,310.43C348.39,313.42 350.05,325.82 353.57,320.65ZM189.52,325.61C179.45,330.78 177.44,332.84 186.74,339.37C190.25,332.69 195.07,332.12 189.52,325.61ZM373.96,180.84C372.71,185.23 360.9,194.25 365.85,196.39C379.61,200.68 373.21,190.78 373.96,180.84ZM70.44,493.57C69.22,503.32 75.92,502.52 82.46,507.54C93.23,512.49 74.37,493.08 70.44,493.57ZM41.13,221.03C49.48,214.79 55.44,212.88 48.74,201.71C46.34,207.57 42.97,214.98 41.13,221.03ZM154.29,386.87C150.95,393.9 145.53,402.21 157.28,403.03C160.29,400.04 154.18,391.12 154.29,386.87ZM53.2,497.08C55.61,504.89 56.88,516.54 65.6,506.04C65.26,502.12 55.64,501.53 53.2,497.08ZM79.27,215.96C79.65,207.18 72.62,201.52 68.57,194.23C69.52,200.49 76.55,221.03 79.27,215.96ZM297.11,525.11C295.24,535.76 290.93,541.22 303.14,534.52C301.07,530.91 299.23,527 297.11,525.11ZM55.63,493.3C58.72,495.27 64.09,500.78 67.2,499.41C68.07,490.59 62,492.45 55.63,493.3ZM157.99,381.16C157.75,385.38 162.6,404.3 162.81,393.91C163.74,388.67 161.16,384.46 157.99,381.16ZM335.39,471.83C335.66,467.46 337.29,463.16 338.75,458.63C343.11,444.5 330.15,466.95 335.39,471.83ZM377.91,338.65C385.5,341.72 387.67,322.24 382.79,331.86C381.52,334.18 379.66,336.02 377.91,338.65ZM237.16,496.99C237.91,500.37 238.24,504.34 246.96,501.78C243.53,499.7 240.72,497.63 237.16,496.99Z" style="fill:rgb(195,190,247);fill-rule:nonzero;"/>
            </g>
            <g transform="matrix(8.03773,0,0,8.03773,-5596.27,-5808.44)">
                <path d="M717.903,761.374C718.576,761.28 718.778,760.847 718.797,760.341C718.847,758.981 717.425,757.776 716.014,757.776C712.957,757.776 711.814,760.429 711.814,763.318C711.814,765.881 713.413,767.84 715.66,767.836C720.389,767.826 722.644,764.398 723.907,762.028C724.209,761.461 723.241,759.445 722.762,760.327C721.301,763.602 718.128,765.669 716.113,765.669C715.105,765.669 714.25,765.098 714.25,763.587C714.25,761.067 715.19,760.119 715.611,759.908C716.064,759.682 716.623,759.965 716.719,760.597C716.794,761.097 717.185,761.475 717.903,761.374L717.903,761.374Z" style="fill:rgb(138,80,255);fill-rule:nonzero;"/>
                <path d="M734.874,761.114C734.168,763.532 732.187,765.417 731.288,765.417C730.455,765.417 730.278,764.802 730.241,762.064C731.63,760.274 733.978,756.781 734.011,753.529C734.043,750.439 731.91,750.285 731.91,750.285C728.993,750.285 728.169,755.79 728.011,759.001C727.576,758.448 726.976,758.045 726.149,758.045C722.715,758.045 721.908,761.622 721.908,763.687C721.908,765.249 722.337,767.559 724.915,767.559C726.264,767.559 727.51,766.535 728.291,765.162C728.656,766.672 729.432,767.836 731.078,767.836C734.202,767.836 736.209,764.506 736.822,762.021C737.057,761.07 735.554,759.905 734.874,761.114ZM725.091,765.266C723.521,765.266 724.092,760.464 725.897,760.464C726.855,760.464 727.082,762.293 727.082,762.293C727.082,763.687 725.881,765.266 725.091,765.266ZM731.574,752.972C731.807,752.972 732.425,753.833 730.269,757.999C730.445,754.474 731.191,752.972 731.574,752.972Z" style="fill:rgb(138,80,255);fill-rule:nonzero;"/>
                <path d="M739.254,767.483C739.723,767.013 739.723,766.251 739.254,765.781C738.783,765.311 738.021,765.311 737.551,765.781C737.081,766.251 737.081,767.013 737.551,767.483C738.021,767.953 738.783,767.953 739.254,767.483Z" style="fill:rgb(138,80,255);fill-rule:nonzero;"/>
                <path d="M746.182,755.626C745.167,755.626 744.039,755.596 743.098,755.663C742.572,755.701 742.441,756.302 742.421,756.528C742.403,756.735 742.497,757.13 743.249,757.168C743.375,757.174 743.508,757.179 743.643,757.184C743.421,759.231 743.254,762.788 743.099,764.927C743.069,765.343 742.998,765.826 742.973,766.276C742.784,766.285 742.598,766.295 742.421,766.307C741.895,766.345 741.764,766.946 741.744,767.172C741.726,767.379 741.82,767.774 742.572,767.812C743.737,767.87 745.403,767.818 745.806,767.699C746.446,767.511 746.483,766.232 745.543,766.232C745.362,766.232 745.175,766.233 744.987,766.233C744.992,766.141 744.995,766.06 744.998,765.999C745.167,763.035 745.317,760.102 745.505,757.281C745.507,757.256 745.512,757.223 745.518,757.186C745.946,757.169 746.289,757.139 746.446,757.093C747.085,756.905 747.123,755.626 746.182,755.626L746.182,755.626Z" style="fill:rgb(138,80,255);fill-rule:nonzero;"/>
                <path d="M753.252,755.567C748.832,755.567 748.821,762.207 748.821,762.845C748.821,763.486 748.99,767.979 752.244,767.979C755.327,767.979 756.681,764.726 756.681,760.664C756.681,756.846 754.606,755.567 753.252,755.567ZM754.594,761.641C754.35,764.18 753.616,766.192 752.488,766.192C751.301,766.192 750.735,764.231 750.908,761.924C751.153,758.671 752.387,757.335 753.31,757.335C754.365,757.335 754.782,759.273 754.594,761.641Z" style="fill:rgb(138,80,255);fill-rule:nonzero;"/>
            </g>
        </g>
    </g>
</svg>
